<svg width="184" height="136" viewBox="0 0 184 136" fill="none" xmlns="http://www.w3.org/2000/svg">
<path d="M60.0892 29.1728C73.3522 30.5483 83.6325 40.6142 85.9775 53.1854L95.0568 52.2627L101.039 23.7223L97.5098 21.8108C92.1991 25.0956 86.2614 26.7188 79.5844 26.0268C70.3208 25.0657 62.5062 19.8694 57.8331 12.5415L55.8186 13.7205L48.6628 27.9853L49.5525 30.1318C52.8931 29.2412 56.4456 28.7948 60.087 29.1707" fill="#00BF8B"/>
<path d="M12.475 81.1255C14.8221 81.1255 15.8368 82.3749 15.8368 82.3749L15.0594 83.2805C15.0594 83.2805 14.1485 82.3365 12.5152 82.3365C10.1554 82.3365 8.3103 84.4103 8.3103 86.6977C8.3103 88.3594 9.35253 89.6216 11.1447 89.6216C12.9368 89.6216 14.2417 88.4128 14.2417 88.4128L14.8073 89.4508C14.8073 89.4508 13.2651 90.8326 11.0769 90.8326C8.5179 90.8326 6.96303 89.1325 6.96303 86.7639C6.96303 83.6799 9.56013 81.1276 12.475 81.1276" fill="#00BF8B"/>
<path d="M19.277 89.7136C20.6497 89.7136 22.0732 88.4513 22.0732 86.7897C22.0732 85.6727 21.2958 84.9017 20.2006 84.9017C18.7898 84.9017 17.3917 86.1639 17.3917 87.8127C17.3917 88.9426 18.1691 89.7136 19.277 89.7136ZM20.2133 83.7847C22.0732 83.7847 23.3781 84.9807 23.3781 86.7235C23.3781 89.0643 21.3212 90.8306 19.2643 90.8306C17.3917 90.8306 16.0868 89.6217 16.0868 87.8661C16.0868 85.5531 18.1183 83.7847 20.2133 83.7847Z" fill="#00BF8B"/>
<path d="M25.4732 83.9425H26.7124L26.4752 85.1108C26.4222 85.3905 26.3417 85.6554 26.3417 85.6554H26.3544C26.8035 84.6986 27.7123 83.8613 28.7672 83.8613C28.9388 83.8613 29.085 83.8741 29.1633 83.8891L28.9134 85.1663C28.8202 85.1385 28.7164 85.1257 28.5575 85.1257C27.331 85.1257 26.2231 86.6549 25.9201 88.2226L25.4583 90.6702H24.1789L25.4711 83.9425H25.4732Z" fill="#00BF8B"/>
<path d="M32.4214 89.7136C33.5801 89.7136 34.8871 88.571 34.8871 86.6423C34.8871 85.5659 34.3194 84.9145 33.3831 84.9145C32.0104 84.9145 30.9301 86.4159 30.9301 87.9857C30.9301 88.9298 31.4046 89.7136 32.4193 89.7136M29.8772 93.3295H28.5977L30.4047 83.9449H31.591L31.4851 84.5151C31.4321 84.7799 31.341 85.0469 31.341 85.0469H31.3686C31.8304 84.3421 32.648 83.7847 33.6903 83.7847C35.2854 83.7847 36.1942 84.8611 36.1942 86.5505C36.1942 89.0899 34.3999 90.8306 32.5697 90.8306C31.6863 90.8306 30.9089 90.444 30.5784 89.6623H30.5509C30.5509 89.6623 30.5233 89.9421 30.4577 90.286L29.8772 93.3316V93.3295Z" fill="#00BF8B"/>
<path d="M40.308 89.7136C41.6786 89.7136 43.1021 88.4513 43.1021 86.7897C43.1021 85.6727 42.3247 84.9017 41.2295 84.9017C39.8187 84.9017 38.4205 86.1639 38.4205 87.8127C38.4205 88.9426 39.198 89.7136 40.3059 89.7136M41.2422 83.7847C43.1021 83.7847 44.4049 84.9807 44.4049 86.7235C44.4049 89.0643 42.348 90.8306 40.2911 90.8306C38.4184 90.8306 37.1135 89.6217 37.1135 87.8661C37.1135 85.5531 39.145 83.7847 41.2401 83.7847" fill="#00BF8B"/>
<path d="M46.5042 83.9425H47.7434L47.5061 85.1108C47.4532 85.3905 47.3727 85.6554 47.3727 85.6554H47.3854C47.8345 84.6986 48.7432 83.8613 49.7982 83.8613C49.9698 83.8613 50.1159 83.8741 50.1943 83.8891L49.9444 85.1663C49.8511 85.1385 49.7473 85.1257 49.5885 85.1257C48.3619 85.1257 47.254 86.6549 46.9511 88.2226L46.4893 90.6702H45.2098L46.502 83.9425H46.5042Z" fill="#00BF8B"/>
<path d="M52.2788 89.7923C53.3465 89.7923 54.2298 88.6625 54.4671 87.6651L54.52 87.4387H54.1896C53.2532 87.4387 51.209 87.5455 51.209 88.9145C51.209 89.378 51.5395 89.7923 52.2767 89.7923M54.3484 86.469H54.6789C54.7319 86.2042 54.7319 86.044 54.7319 85.9244C54.7319 85.3008 54.4289 84.8736 53.5329 84.8736C52.5055 84.8736 51.5416 85.5122 51.5416 85.5122L51.1984 84.487C51.1984 84.487 52.3063 83.7822 53.7172 83.7822C54.9967 83.7822 56.0389 84.3268 56.0389 85.7749C56.0389 85.9885 56.0135 86.2683 55.9605 86.5203L55.1555 90.668H53.9693L54.1006 89.9909C54.1535 89.6855 54.234 89.4591 54.2446 89.4591H54.2192C54.2319 89.4591 53.4142 90.8282 51.8975 90.8282C50.8426 90.8282 49.9062 90.2173 49.9062 89.1281C49.9062 86.9475 52.5415 86.469 54.3484 86.469Z" fill="#00BF8B"/>
<path d="M61.2691 83.7847C63.0231 83.7847 63.7878 84.7543 63.7878 84.7543L63.076 85.5915C63.076 85.5915 62.4427 84.8995 61.3348 84.8995C59.8307 84.8995 58.4601 86.1896 58.4601 87.8106C58.4601 88.9276 59.2249 89.7115 60.4111 89.7115C61.5974 89.7115 62.6524 88.808 62.6524 88.808L63.0082 89.8332C63.0082 89.8332 61.9258 90.8285 60.2925 90.8285C58.3669 90.8285 57.1552 89.6324 57.1552 87.9046C57.1552 85.6193 59.0681 83.7847 61.2691 83.7847Z" fill="#00BF8B"/>
<path d="M66.029 81.2837H67.3466L67.0818 82.5993H65.7769L66.0269 81.2837H66.029ZM65.5418 83.9427H66.8213L65.5164 90.6704H64.239L65.5439 83.9427H65.5418Z" fill="#00BF8B"/>
<path d="M72.7929 81.2837H74.2313L72.6489 82.9731H71.5007L72.7929 81.2837ZM70.8144 89.7136C72.1871 89.7136 73.6106 88.4514 73.6106 86.7897C73.6106 85.6727 72.8332 84.9017 71.738 84.9017C70.3271 84.9017 68.929 86.1639 68.929 87.8128C68.929 88.9426 69.7065 89.7136 70.8144 89.7136ZM71.7507 83.7847C73.6106 83.7847 74.9134 84.9807 74.9134 86.7235C74.9134 89.0643 72.8565 90.8306 70.7995 90.8306C68.9269 90.8306 67.622 89.6218 67.622 87.8662C67.622 85.5531 69.6535 83.7847 71.7486 83.7847" fill="#00BF8B"/>
<path d="M77.0127 83.9426H78.2646L78.1206 84.7264C78.0549 85.0447 77.9363 85.3629 77.9363 85.3629H77.9617C78.3176 84.6987 79.3852 83.7803 80.7177 83.7803C81.9039 83.7803 82.6687 84.3398 82.6687 85.5615C82.6687 85.8135 82.6305 86.1061 82.5776 86.4137L81.7599 90.6682H80.4825L81.2473 86.6935C81.3002 86.4137 81.3405 86.1617 81.3405 85.9353C81.3405 85.271 80.957 84.9656 80.3512 84.9656C79.006 84.9656 77.86 86.1894 77.5825 87.5969L77.0021 90.6682H75.7226L77.0148 83.9405L77.0127 83.9426Z" fill="#00BF8B"/>
<path d="M17.3069 100.247C16.216 100.247 15.2437 100.623 14.3857 101.373C13.5299 102.125 12.9431 103.118 12.6296 104.35H20.7662C20.7514 103.116 20.459 102.125 19.8934 101.373C19.3278 100.623 18.4636 100.247 17.3069 100.247ZM18.4657 93.7928C20.9145 93.7928 22.8973 94.361 24.4161 95.4929C25.935 96.627 26.9751 98.1434 27.5365 100.046C28.0978 101.947 28.2016 104.081 27.85 106.449L27.5004 108.801H12.0682C12.3754 111.635 14.2798 113.051 17.7878 113.051C20.0714 113.051 22.4291 112.419 24.8673 111.15L26.24 116.603C24.9902 117.436 23.5116 118.102 21.8 118.604C20.0883 119.104 18.256 119.354 16.305 119.354C11.9051 119.354 8.60474 118.237 6.40801 116.003C4.20916 113.767 3.40419 110.668 3.99309 106.697C4.38075 104.096 5.24716 101.819 6.59655 99.867C7.94382 97.917 9.64697 96.4156 11.706 95.3648C13.7629 94.314 16.0169 93.7886 18.4657 93.7886" fill="#00BF8B"/>
<path d="M36.8318 119.356C35.5078 119.356 33.936 119.138 32.1142 118.707C30.2924 118.273 28.888 117.607 27.8966 116.706L30.9364 111.603C31.8875 112.103 32.9594 112.513 34.1542 112.827C35.3468 113.145 36.3742 113.303 37.2343 113.303C38.0287 113.303 38.751 113.162 39.4056 112.876C40.058 112.594 40.4245 112.201 40.4986 111.701C40.5643 111.268 40.3355 110.849 39.8165 110.452C39.2975 110.051 38.5476 109.683 37.5732 109.352C35.2811 108.517 33.4509 107.483 32.0782 106.251C30.7055 105.016 30.1632 103.449 30.445 101.548C30.8008 99.1474 31.9765 97.2551 33.9678 95.8689C35.959 94.485 38.5095 93.793 41.6193 93.793C42.8754 93.793 44.3074 94.0023 45.9174 94.4188C47.5252 94.8352 48.8428 95.4781 49.8724 96.3452L46.8834 101.448C44.7205 100.414 42.7462 99.8992 40.9604 99.8992C40.1978 99.8992 39.5496 100.049 39.0094 100.35C38.4693 100.651 38.1621 101.033 38.0943 101.501C38.0159 102.035 38.9628 102.669 40.9371 103.402C46.1737 105.335 48.5357 108.036 48.0209 111.507C47.6481 114.008 46.5105 115.943 44.6019 117.31C42.6954 118.679 40.1046 119.36 36.8297 119.36" fill="#00BF8B"/>
<path d="M70.8229 111.701L72.3608 101.347C71.2931 100.514 70.0984 100.098 68.7765 100.098C67.3191 100.098 66.0587 100.698 64.9868 101.898C63.917 103.099 63.2328 104.683 62.9426 106.65C62.646 108.652 62.8579 110.228 63.5802 111.377C64.3026 112.528 65.4592 113.103 67.0458 113.103C68.1368 113.103 69.3972 112.637 70.8271 111.701M77.4173 119.758C77.0995 121.891 76.2861 123.76 74.9727 125.36C73.6593 126.962 71.9541 128.185 69.8611 129.035C67.7661 129.888 65.4295 130.313 62.8494 130.313C61.5275 130.313 59.8095 130.063 57.7018 129.561C55.594 129.061 53.9587 128.378 52.7957 127.511L55.9457 122.009C58.4263 123.341 60.8899 124.01 63.3387 124.01C65.0249 124.01 66.4485 123.617 67.6072 122.833C68.7638 122.049 69.4396 121.007 69.6345 119.706L69.8357 118.357C68.2491 119.023 66.726 119.358 65.2707 119.358C61.5318 119.358 58.7186 118.258 56.829 116.056C54.9395 113.856 54.2934 110.736 54.895 106.702C55.4945 102.667 57.0875 99.5062 59.6761 97.2209C62.2647 94.9378 65.4952 93.793 69.3654 93.793C70.4903 93.793 71.5982 94.0194 72.6891 94.4679C73.7801 94.9185 74.7609 95.5614 75.6294 96.3943L77.1864 94.5939H81.1562L77.4194 119.758H77.4173Z" fill="#00BF8B"/>
<path d="M93.5697 83.4878L88.3247 118.805H80.5842L85.7466 84.0367L93.5697 83.4878Z" fill="#00BF8B"/>
<path d="M109.87 106.702C110.148 104.833 109.904 103.299 109.14 102.099C108.375 100.899 107.216 100.299 105.661 100.299C104.106 100.299 102.664 100.875 101.535 102.024C100.406 103.175 99.6981 104.7 99.4164 106.601C99.1325 108.502 99.3782 110.029 100.149 111.178C100.92 112.329 102.102 112.904 103.689 112.904C105.276 112.904 106.634 112.338 107.763 111.204C108.89 110.07 109.593 108.568 109.87 106.702ZM102.683 119.356C100.069 119.356 97.8445 118.863 96.0058 117.88C94.1671 116.896 92.8368 115.445 92.0127 113.528C91.1887 111.61 90.9768 109.301 91.3793 106.599C91.7649 103.998 92.6737 101.732 94.1014 99.7966C95.5313 97.8638 97.3213 96.3794 99.4778 95.3435C101.632 94.3098 104 93.793 106.579 93.793C109.157 93.793 111.423 94.3013 113.272 95.3179C115.124 96.3345 116.459 97.8125 117.278 99.7454C118.098 101.678 118.31 103.998 117.907 106.699C117.522 109.301 116.615 111.552 115.194 113.453C113.77 115.354 111.974 116.815 109.805 117.829C107.636 118.846 105.261 119.354 102.681 119.354" fill="#00BF8B"/>
<path d="M135.007 106.501C135.301 104.5 135.089 102.932 134.371 101.798C133.651 100.664 132.505 100.098 130.931 100.098C129.912 100.098 128.792 100.482 127.563 101.249L125.972 112.054C127.016 112.754 128.097 113.105 129.213 113.105C130.656 113.105 131.91 112.496 132.975 111.279C134.041 110.061 134.717 108.468 135.007 106.501ZM142.936 106.45C142.34 110.484 140.769 113.645 138.218 115.928C135.668 118.213 132.473 119.356 128.635 119.356C126.569 119.356 124.64 118.638 122.852 117.205L121.237 118.807H117.302L122.422 84.0388L130.179 83.4878L128.537 94.643C129.899 94.077 131.287 93.7929 132.698 93.7929C136.405 93.7929 139.186 94.8928 141.044 97.0948C142.902 99.2968 143.531 102.415 142.938 106.45" fill="#00BF8B"/>
<path d="M152.168 108.551C151.339 108.551 150.634 108.801 150.047 109.303C149.46 109.803 149.109 110.437 148.996 111.204C148.907 111.804 149.045 112.321 149.412 112.754C149.776 113.188 150.308 113.404 151.002 113.404C152.458 113.404 153.958 112.769 155.502 111.503L155.94 108.551H152.17H152.168ZM153.61 100.497C152.651 100.497 151.536 100.649 150.267 100.948C148.998 101.249 147.869 101.616 146.88 102.048L145.687 96.0441C146.87 95.4439 148.452 94.9207 150.437 94.4679C152.422 94.0172 154.176 93.793 155.697 93.793C157.713 93.793 159.442 94.1924 160.878 94.9933C162.314 95.7942 163.346 96.9197 163.973 98.3699C164.6 99.8201 164.776 101.48 164.498 103.348L162.202 118.805H157.885L156.428 116.255C154.332 118.325 152.212 119.356 150.062 119.356C147.151 119.356 145.058 118.63 143.785 117.18C142.512 115.73 142.061 113.754 142.434 111.253C142.8 108.784 143.902 106.934 145.738 105.7C147.577 104.465 149.933 103.848 152.811 103.848H156.582C156.673 102.78 156.457 101.956 155.934 101.371C155.409 100.788 154.633 100.495 153.608 100.495" fill="#00BF8B"/>
<path d="M177.67 83.4878L172.427 118.805H164.685L169.847 84.0367L177.67 83.4878Z" fill="#00BF8B"/>
<path d="M41.6786 44.2428C48.8937 35.2127 62.002 33.7882 70.9584 41.0626C79.9148 48.335 81.3277 61.5512 74.1126 70.5834C66.8975 79.6135 53.7913 81.038 44.8328 73.7636C35.8764 66.4891 34.4635 53.2729 41.6786 44.2428Z" fill="#00BF8B"/>
<path d="M85.4437 43.3971C83.7024 60.4448 95.9994 75.69 112.91 77.4456C129.819 79.1991 144.94 66.8031 146.681 49.7531C148.422 32.7053 136.125 17.4623 119.214 15.7067C102.304 13.9511 87.185 26.3493 85.4437 43.3992" fill="#00BF8B"/>
<path d="M34.8172 16.8493C34.1266 23.6069 39.0031 29.6511 45.7055 30.3474C52.408 31.0437 58.4029 26.1271 59.0935 19.3695C59.782 12.6119 54.9077 6.56764 48.2052 5.87137C41.5027 5.17511 35.5078 10.0917 34.8172 16.8493Z" fill="#00BF8B"/>
</svg>
