<svg width="28" height="33" viewBox="0 0 28 33" fill="none" xmlns="http://www.w3.org/2000/svg">
<path d="M2.1193 4.54333C1.54198 3.56927 1.86348 2.31066 2.83891 1.73197C3.81296 1.15464 5.07295 1.47477 5.65027 2.45157L6.46153 3.81963C7.03885 4.79369 6.71736 6.0523 5.74193 6.63099C5.4136 6.82526 5.0538 6.91692 4.6981 6.91692C3.99765 6.91692 3.31362 6.55849 2.93057 5.91139L2.1193 4.54333ZM26.2355 19.6057C23.9125 22.5525 19.2283 25.9932 13.6698 25.9932C7.9965 25.9932 3.3533 22.5867 1.1001 19.6686C-0.370566 17.7643 -0.366462 15.1212 1.11104 13.2428C3.43401 10.2892 8.11689 6.84031 13.6698 6.84031C19.3131 6.84031 23.97 10.2509 26.2423 13.1717C27.7239 15.0747 27.7212 17.7205 26.2355 19.6057ZM23.0041 15.693C21.632 13.9296 18.1215 10.9445 13.6698 10.9445C9.30573 10.9445 5.75014 13.9843 4.33693 15.7792C4.01954 16.1842 4.02365 16.7396 4.34924 17.1596C5.70499 18.9162 9.19492 21.889 13.6698 21.889C18.0422 21.889 21.5991 18.8574 23.011 17.0652C23.3256 16.6671 23.3229 16.1021 23.0041 15.693ZM13.6698 12.3126C11.403 12.3126 9.56566 14.1499 9.56566 16.4167C9.56566 18.6836 11.403 20.5209 13.6698 20.5209C15.9367 20.5209 17.774 18.6836 17.774 16.4167C17.774 14.1499 15.9367 12.3126 13.6698 12.3126ZM13.6698 5.47224C14.804 5.47224 15.7219 4.55428 15.7219 3.42015V2.05209C15.7219 0.917969 14.804 0 13.6698 0C12.5357 0 11.6178 0.917969 11.6178 2.05209V3.42015C11.6178 4.55428 12.5357 5.47224 13.6698 5.47224ZM21.5978 6.63099C21.9261 6.82526 22.2859 6.91692 22.6416 6.91692C23.342 6.91692 24.0261 6.55712 24.4091 5.91139L25.2204 4.54333C25.7977 3.56927 25.4762 2.31066 24.5008 1.73197C23.5295 1.15738 22.2681 1.47614 21.6894 2.45157L20.8782 3.81963C20.3008 4.79369 20.6223 6.0523 21.5978 6.63099ZM24.4091 26.9221C23.8318 25.9466 22.5732 25.6252 21.5978 26.2025C20.6223 26.7812 20.3008 28.0398 20.8782 29.0138L21.6894 30.3819C22.0725 31.029 22.7565 31.3874 23.457 31.3874C23.8127 31.3874 24.1725 31.2958 24.5008 31.1015C25.4762 30.5228 25.7977 29.2642 25.2204 28.2901L24.4091 26.9221ZM13.6698 27.3612C12.5357 27.3612 11.6178 28.2792 11.6178 29.4133V30.7814C11.6178 31.9155 12.5357 32.8335 13.6698 32.8335C14.804 32.8335 15.7219 31.9155 15.7219 30.7814V29.4133C15.7219 28.2792 14.804 27.3612 13.6698 27.3612ZM5.74193 26.2025C4.76924 25.6252 3.51062 25.9466 2.93057 26.9221L2.1193 28.2901C1.54198 29.2642 1.86348 30.5228 2.83891 31.1015C3.16724 31.2958 3.52704 31.3874 3.88274 31.3874C4.58318 31.3874 5.26721 31.0276 5.65027 30.3819L6.46153 29.0138C7.03885 28.0398 6.71736 26.7812 5.74193 26.2025Z" fill="white"/>
</svg>
