<svg width="34" height="34" viewBox="0 0 34 34" fill="none" xmlns="http://www.w3.org/2000/svg">
<path d="M21.0831 4.21663C21.0831 3.09831 20.6389 2.02579 19.8481 1.23502C19.0573 0.44425 17.9848 0 16.8665 0L0 0V33.733H2.81108V18.272H14.0554V19.6776C14.0554 20.7959 14.4997 21.8684 15.2904 22.6592C16.0812 23.45 17.1537 23.8942 18.272 23.8942H33.733V5.62217H21.0831V4.21663ZM2.81108 2.81108H16.8665C17.2393 2.81108 17.5968 2.95917 17.8604 3.22276C18.124 3.48635 18.272 3.84385 18.272 4.21663V15.461H2.81108V2.81108ZM30.9219 8.43325V21.0831H18.272C17.8993 21.0831 17.5418 20.9351 17.2782 20.6715C17.0146 20.4079 16.8665 20.0504 16.8665 19.6776V18.272H21.0831V8.43325H30.9219Z" fill="white"/>
</svg>
