<svg width="134" height="99" viewBox="0 0 134 99" fill="none" xmlns="http://www.w3.org/2000/svg">
<path d="M43.7606 21.2359C53.4195 22.2372 60.9063 29.5646 62.6141 38.7157L69.2261 38.044L73.5828 17.2683L71.0126 15.8768C67.145 18.268 62.8208 19.4496 57.9582 18.9458C51.2119 18.2462 45.5208 14.4636 42.1176 9.12933L40.6505 9.98753L35.4392 20.3715L36.0871 21.934C38.52 21.2857 41.1071 20.9608 43.759 21.2344" fill="#BBBBBA"/>
<path d="M9.08503 59.0545C10.7944 59.0545 11.5333 59.964 11.5333 59.964L10.9671 60.6232C10.9671 60.6232 10.3038 59.9361 9.11434 59.9361C7.39576 59.9361 6.05206 61.4457 6.05206 63.1108C6.05206 64.3204 6.81107 65.2392 8.11621 65.2392C9.42134 65.2392 10.3717 64.3592 10.3717 64.3592L10.7836 65.1148C10.7836 65.1148 9.66046 66.1207 8.06684 66.1207C6.20324 66.1207 5.07089 64.8832 5.07089 63.159C5.07089 60.914 6.96226 59.0561 9.08503 59.0561" fill="#202020"/>
<path d="M14.0387 65.3061C15.0384 65.3061 16.0751 64.3872 16.0751 63.1777C16.0751 62.3645 15.5089 61.8033 14.7113 61.8033C13.6839 61.8033 12.6657 62.7221 12.6657 63.9224C12.6657 64.7448 13.2318 65.3061 14.0387 65.3061ZM14.7206 60.9902C16.0751 60.9902 17.0254 61.8608 17.0254 63.1295C17.0254 64.8334 15.5274 66.1192 14.0294 66.1192C12.6657 66.1192 11.7154 65.2392 11.7154 63.9612C11.7154 62.2775 13.1948 60.9902 14.7206 60.9902Z" fill="#202020"/>
<path d="M18.5511 61.1052H19.4536L19.2808 61.9557C19.2423 62.1593 19.1836 62.3521 19.1836 62.3521H19.1929C19.5199 61.6556 20.1818 61.0461 20.95 61.0461C21.075 61.0461 21.1814 61.0555 21.2385 61.0664L21.0565 61.9961C20.9886 61.9759 20.913 61.9665 20.7973 61.9665C19.9041 61.9665 19.0972 63.0797 18.8766 64.2209L18.5403 66.0026H17.6085L18.5496 61.1052H18.5511Z" fill="#202020"/>
<path d="M23.6112 65.3061C24.4551 65.3061 25.4069 64.4743 25.4069 63.0704C25.4069 62.2868 24.9935 61.8126 24.3116 61.8126C23.3119 61.8126 22.5251 62.9056 22.5251 64.0483C22.5251 64.7355 22.8707 65.3061 23.6097 65.3061M21.7584 67.9382H20.8266L22.1425 61.1068H23.0065L22.9293 61.5219C22.8908 61.7147 22.8244 61.909 22.8244 61.909H22.8445C23.1808 61.3959 23.7763 60.9902 24.5353 60.9902C25.697 60.9902 26.3588 61.7737 26.3588 63.0035C26.3588 64.8521 25.0521 66.1192 23.7192 66.1192C23.0759 66.1192 22.5097 65.8378 22.2691 65.2688H22.249C22.249 65.2688 22.2289 65.4724 22.1811 65.7227L21.7584 67.9398V67.9382Z" fill="#202020"/>
<path d="M29.3547 65.3061C30.3529 65.3061 31.3896 64.3872 31.3896 63.1777C31.3896 62.3645 30.8234 61.8033 30.0258 61.8033C28.9984 61.8033 27.9802 62.7221 27.9802 63.9224C27.9802 64.7448 28.5464 65.3061 29.3532 65.3061M30.0351 60.9902C31.3896 60.9902 32.3383 61.8608 32.3383 63.1295C32.3383 64.8334 30.8404 66.1192 29.3424 66.1192C27.9786 66.1192 27.0283 65.2392 27.0283 63.9612C27.0283 62.2775 28.5078 60.9902 30.0335 60.9902" fill="#202020"/>
<path d="M33.8672 61.1052H34.7696L34.5969 61.9557C34.5583 62.1593 34.4997 62.3521 34.4997 62.3521H34.5089C34.836 61.6556 35.4978 61.0461 36.2661 61.0461C36.391 61.0461 36.4975 61.0555 36.5546 61.0664L36.3725 61.9961C36.3046 61.9759 36.2291 61.9665 36.1133 61.9665C35.2201 61.9665 34.4133 63.0797 34.1927 64.2209L33.8564 66.0026H32.9246L33.8656 61.1052H33.8672Z" fill="#202020"/>
<path d="M38.0726 65.3636C38.8501 65.3636 39.4934 64.5411 39.6662 63.8151L39.7048 63.6503H39.4641C38.7822 63.6503 37.2935 63.728 37.2935 64.7246C37.2935 65.062 37.5342 65.3636 38.0711 65.3636M39.5798 62.9444H39.8205C39.8591 62.7517 39.8591 62.6351 39.8591 62.548C39.8591 62.094 39.6384 61.7831 38.9859 61.7831C38.2377 61.7831 37.5357 62.2479 37.5357 62.2479L37.2858 61.5017C37.2858 61.5017 38.0927 60.9886 39.1201 60.9886C40.0519 60.9886 40.8109 61.3851 40.8109 62.4392C40.8109 62.5946 40.7924 62.7983 40.7538 62.9818L40.1676 66.001H39.3037L39.3993 65.5082C39.4379 65.2859 39.4965 65.1211 39.5042 65.1211H39.4857C39.495 65.1211 38.8995 66.1176 37.7949 66.1176C37.0266 66.1176 36.3448 65.673 36.3448 64.8801C36.3448 63.2927 38.2639 62.9444 39.5798 62.9444Z" fill="#202020"/>
<path d="M44.6199 60.9902C45.8972 60.9902 46.4542 61.696 46.4542 61.696L45.9358 62.3055C45.9358 62.3055 45.4745 61.8017 44.6677 61.8017C43.5724 61.8017 42.5742 62.7408 42.5742 63.9208C42.5742 64.7339 43.1312 65.3045 43.9951 65.3045C44.859 65.3045 45.6273 64.6469 45.6273 64.6469L45.8864 65.3931C45.8864 65.3931 45.0981 66.1176 43.9087 66.1176C42.5064 66.1176 41.6239 65.247 41.6239 63.9892C41.6239 62.3257 43.017 60.9902 44.6199 60.9902Z" fill="#202020"/>
<path d="M48.0864 59.1696H49.0459L48.8531 60.1273H47.9028L48.0848 59.1696H48.0864ZM47.7315 61.1052H48.6633L47.713 66.0026H46.7828L47.7331 61.1052H47.7315Z" fill="#202020"/>
<path d="M53.0122 59.1696H54.0597L52.9073 60.3994H52.0712L53.0122 59.1696ZM51.5713 65.3061C52.571 65.3061 53.6077 64.3872 53.6077 63.1777C53.6077 62.3645 53.0415 61.8033 52.2439 61.8033C51.2165 61.8033 50.1983 62.7221 50.1983 63.9224C50.1983 64.7448 50.7645 65.3061 51.5713 65.3061ZM52.2532 60.9902C53.6077 60.9902 54.5565 61.8608 54.5565 63.1295C54.5565 64.8334 53.0585 66.1192 51.5605 66.1192C50.1968 66.1192 49.2465 65.2392 49.2465 63.9612C49.2465 62.2775 50.7259 60.9902 52.2517 60.9902" fill="#202020"/>
<path d="M56.0853 61.1052H56.9971L56.8921 61.6758C56.8443 61.9075 56.7579 62.1391 56.7579 62.1391H56.7764C57.0356 61.6556 57.8132 60.9871 58.7835 60.9871C59.6474 60.9871 60.2044 61.3944 60.2044 62.2837C60.2044 62.4672 60.1766 62.6802 60.138 62.904L59.5425 66.001H58.6123L59.1692 63.1077C59.2078 62.904 59.2371 62.7206 59.2371 62.5558C59.2371 62.0723 58.9578 61.8499 58.5166 61.8499C57.537 61.8499 56.7024 62.7408 56.5003 63.7654L56.0776 66.001H55.1458L56.0869 61.1037L56.0853 61.1052Z" fill="#202020"/>
<path d="M12.604 72.974C11.8095 72.974 11.1014 73.2476 10.4766 73.7933C9.85331 74.3406 9.42597 75.0635 9.19765 75.9606H15.1232C15.1124 75.0619 14.8995 74.3406 14.4876 73.7933C14.0757 73.2476 13.4463 72.974 12.604 72.974ZM13.4478 68.2756C15.2312 68.2756 16.6752 68.6891 17.7813 69.5131C18.8874 70.3387 19.6449 71.4426 20.0537 72.8278C20.4625 74.2115 20.5381 75.7647 20.282 77.4889L20.0275 79.2006H8.78883C9.01253 81.2637 10.3994 82.2945 12.9542 82.2945C14.6172 82.2945 16.3342 81.8343 18.1099 80.9108L19.1096 84.88C18.1994 85.4864 17.1226 85.9714 15.8761 86.3368C14.6295 86.7006 13.2951 86.8825 11.8743 86.8825C8.67005 86.8825 6.2665 86.0694 4.66671 84.4431C3.06537 82.8153 2.47914 80.5594 2.90801 77.6692C3.19033 75.7756 3.8213 74.1182 4.80401 72.6972C5.78517 71.2778 7.02551 70.1848 8.52503 69.4199C10.023 68.6549 11.6645 68.2725 13.4478 68.2725" fill="#202020"/>
<path d="M26.8231 86.8841C25.8589 86.8841 24.7143 86.7255 23.3875 86.4114C22.0608 86.0958 21.038 85.6107 20.316 84.9546L22.5298 81.2404C23.2224 81.6042 24.0031 81.9027 24.8732 82.1313C25.7417 82.3629 26.4899 82.478 27.1163 82.478C27.6948 82.478 28.2208 82.3754 28.6975 82.167C29.1727 81.9618 29.4396 81.6757 29.4936 81.3119C29.5414 80.9963 29.3748 80.6916 28.9968 80.4024C28.6189 80.1101 28.0727 79.8427 27.3631 79.6017C25.6939 78.9938 24.361 78.2414 23.3613 77.3443C22.3616 76.4457 21.9667 75.3045 22.1719 73.9208C22.431 72.1733 23.2872 70.7958 24.7374 69.7868C26.1875 68.7793 28.045 68.2756 30.3097 68.2756C31.2245 68.2756 32.2674 68.428 33.4398 68.7311C34.6108 69.0343 35.5703 69.5023 36.3201 70.1335L34.1433 73.8477C32.5682 73.0952 31.1304 72.7205 29.8299 72.7205C29.2745 72.7205 28.8024 72.8294 28.409 73.0486C28.0157 73.2678 27.792 73.5461 27.7426 73.8866C27.6855 74.2753 28.3751 74.737 29.8129 75.2703C33.6265 76.6773 35.3466 78.644 34.9717 81.1705C34.7002 82.991 33.8718 84.3996 32.4818 85.3946C31.0934 86.3912 29.2066 86.8872 26.8216 86.8872" fill="#202020"/>
<path d="M51.5775 81.3119L52.6975 73.7746C51.92 73.1683 51.0499 72.8651 50.0872 72.8651C49.0259 72.8651 48.1079 73.302 47.3273 74.1758C46.5483 75.0495 46.05 76.2031 45.8386 77.635C45.6226 79.0918 45.7769 80.2392 46.303 81.0756C46.829 81.9136 47.6714 82.3318 48.8268 82.3318C49.6213 82.3318 50.5393 81.9929 51.5806 81.3119M56.38 87.1763C56.1486 88.7295 55.5562 90.0899 54.5997 91.2544C53.6432 92.4204 52.4013 93.3113 50.8771 93.93C49.3514 94.5504 47.6498 94.8598 45.7707 94.8598C44.8081 94.8598 43.5569 94.6779 42.0219 94.3125C40.4869 93.9487 39.296 93.4512 38.449 92.82L40.743 88.815C42.5496 89.7852 44.3437 90.2718 46.1271 90.2718C47.3551 90.2718 48.3918 89.9857 49.2357 89.4151C50.078 88.8446 50.5701 88.0858 50.712 87.139L50.8586 86.1564C49.7031 86.6415 48.5939 86.8856 47.5341 86.8856C44.8112 86.8856 42.7624 86.0849 41.3863 84.482C40.0102 82.8806 39.5397 80.6092 39.9779 77.6723C40.4144 74.7355 41.5746 72.4345 43.4597 70.7709C45.3449 69.1089 47.6976 68.2756 50.5161 68.2756C51.3353 68.2756 52.1421 68.4404 52.9366 68.7669C53.7311 69.0949 54.4454 69.5629 55.0779 70.1692L56.2118 68.8586H59.1029L56.3815 87.1763H56.38Z" fill="#202020"/>
<path d="M68.1432 60.7741L64.3234 86.4829H58.6863L62.4459 61.1736L68.1432 60.7741Z" fill="#202020"/>
<path d="M80.0143 77.6723C80.2164 76.3119 80.039 75.1957 79.4821 74.3219C78.9252 73.4481 78.0813 73.0113 76.949 73.0113C75.8166 73.0113 74.766 73.431 73.9437 74.2675C73.1215 75.1055 72.6062 76.2156 72.401 77.5993C72.1943 78.983 72.3733 80.0946 72.9348 80.931C73.4964 81.769 74.3572 82.1872 75.5127 82.1872C76.6682 82.1872 77.6571 81.7752 78.4793 80.9497C79.3 80.1241 79.8122 79.0312 80.0143 77.6723ZM74.7799 86.8841C72.8762 86.8841 71.2563 86.5249 69.9173 85.8097C68.5782 85.093 67.6094 84.0374 67.0093 82.6412C66.4091 81.2451 66.2549 79.5644 66.548 77.5977C66.8288 75.704 67.4906 74.0545 68.5304 72.6459C69.5717 71.2389 70.8753 70.1584 72.4458 69.4043C74.0147 68.6518 75.7395 68.2756 77.6169 68.2756C79.4944 68.2756 81.1451 68.6456 82.4919 69.3857C83.8402 70.1257 84.8122 71.2016 85.4092 72.6086C86.0062 74.0156 86.1605 75.704 85.8674 77.6708C85.5866 79.5644 84.9263 81.2031 83.8912 82.5868C82.8545 83.9705 81.5462 85.0339 79.9665 85.7724C78.3868 86.5125 76.6574 86.8825 74.7784 86.8825" fill="#202020"/>
<path d="M98.3201 77.5262C98.5346 76.0694 98.3803 74.9282 97.8573 74.1027C97.3328 73.2771 96.4982 72.8651 95.352 72.8651C94.6099 72.8651 93.7938 73.145 92.899 73.7031L91.7405 81.5685C92.501 82.0784 93.2878 82.3334 94.1008 82.3334C95.1514 82.3334 96.0647 81.8903 96.8407 81.0041C97.6167 80.1179 98.1088 78.9581 98.3201 77.5262ZM104.095 77.4889C103.661 80.4257 102.516 82.7267 100.659 84.3887C98.8015 86.0523 96.4751 86.8841 93.6797 86.8841C92.1755 86.8841 90.7701 86.3617 89.4681 85.3185L88.2925 86.4845H85.4261L89.1549 61.1752L94.8043 60.7741L93.6087 68.8944C94.6007 68.4824 95.6111 68.2756 96.6386 68.2756C99.3383 68.2756 101.364 69.0763 102.717 70.6792C104.07 72.2821 104.528 74.552 104.096 77.4889" fill="#202020"/>
<path d="M110.818 79.0187C110.214 79.0187 109.701 79.2006 109.273 79.566C108.846 79.9298 108.59 80.3915 108.508 80.9497C108.443 81.3866 108.544 81.7628 108.811 82.0784C109.076 82.394 109.463 82.551 109.969 82.551C111.029 82.551 112.121 82.0893 113.246 81.1673L113.565 79.0187H110.819H110.818ZM111.868 73.1559C111.169 73.1559 110.358 73.2662 109.434 73.4839C108.51 73.7031 107.688 73.9705 106.967 74.2846L106.099 69.9143C106.959 69.4774 108.112 69.0965 109.557 68.7669C111.003 68.4388 112.28 68.2756 113.388 68.2756C114.856 68.2756 116.115 68.5663 117.161 69.1493C118.207 69.7324 118.959 70.5517 119.415 71.6074C119.872 72.663 120 73.871 119.798 75.2314L118.125 86.4829H114.981L113.92 84.6266C112.394 86.1331 110.85 86.8841 109.284 86.8841C107.165 86.8841 105.64 86.3554 104.713 85.2998C103.786 84.2441 103.457 82.806 103.729 80.9854C103.996 79.1882 104.798 77.8418 106.136 76.9432C107.475 76.0445 109.19 75.5952 111.287 75.5952H114.033C114.099 74.8179 113.942 74.2177 113.561 73.7917C113.178 73.3673 112.613 73.1543 111.867 73.1543" fill="#202020"/>
<path d="M129.39 60.7741L125.572 86.4829H119.934L123.693 61.1736L129.39 60.7741Z" fill="#202020"/>
<path d="M30.3529 32.2061C35.6073 25.6327 45.1536 24.5957 51.6762 29.8911C58.1988 35.1849 59.2278 44.8055 53.9733 51.3804C48.7189 57.9538 39.1741 58.9908 32.65 53.6954C26.1274 48.4 25.0984 38.7794 30.3529 32.2061Z" fill="#BBBBBA"/>
<path d="M62.2253 31.5904C60.9572 44.0002 69.9126 55.0978 82.2281 56.3758C94.5421 57.6522 105.554 48.6286 106.822 36.2172C108.09 23.8075 99.1347 12.7114 86.8192 11.4334C74.5038 10.1554 63.4934 19.1806 62.2253 31.5919" fill="#293271"/>
<path d="M25.356 12.2652C24.8531 17.1843 28.4044 21.5842 33.2856 22.091C38.1667 22.5979 42.5326 19.0189 43.0355 14.0998C43.5369 9.18063 39.9871 4.78077 35.106 4.27393C30.2248 3.76709 25.8589 7.34606 25.356 12.2652Z" fill="#00BF8B"/>
</svg>
