<svg width="49" height="49" viewBox="0 0 49 49" fill="none" xmlns="http://www.w3.org/2000/svg">
<g clip-path="url(#clip0_307_88)">
<circle cx="24.5" cy="24.5" r="24.5" transform="rotate(-180 24.5 24.5)" fill="white"/>
<path d="M24.5 49C38.0201 49 49 38.0201 49 24.5C49 10.9799 38.0201 3.32382e-06 24.5 2.14186e-06C10.9799 9.59895e-07 3.32382e-06 10.9799 2.14186e-06 24.5C9.59895e-07 38.0201 10.9799 49 24.5 49ZM24.5 47.1008C11.9991 47.1008 1.83652 37.0009 1.83652 24.5C1.83652 11.9991 11.9991 1.89924 24.5 1.89924C27.4688 1.89615 30.4092 2.47862 33.1526 3.61332C35.896 4.74802 38.3888 6.41266 40.4881 8.51195C42.5873 10.6112 44.252 13.104 45.3867 15.8474C46.5214 18.5909 47.1039 21.5312 47.1008 24.5C47.1039 27.4688 46.5214 30.4092 45.3867 33.1526C44.252 35.896 42.5873 38.3888 40.4881 40.4881C38.3888 42.5873 35.896 44.252 33.1526 45.3867C30.4091 46.5214 27.4688 47.1039 24.5 47.1008ZM28.1142 35.1585L29.5235 33.81L20.3958 24.5L29.5215 15.19L28.1142 13.8415L17.64 24.5L28.1142 35.1585Z" fill="#293271"/>
</g>
<defs>
<clipPath id="clip0_307_88">
<rect width="49" height="49" fill="white" transform="translate(49 49) rotate(-180)"/>
</clipPath>
</defs>
</svg>
